<svg xmlns="http://www.w3.org/2000/svg" xmlns:xlink="http://www.w3.org/1999/xlink" width="1920" zoomAndPan="magnify" viewBox="0 0 1440 809.999993" height="1080" preserveAspectRatio="xMidYMid meet" version="1.0"><defs><clipPath id="516a85e3f0"><path d="M 614 158.457031 L 826 158.457031 L 826 651.207031 L 614 651.207031 Z M 614 158.457031 " clip-rule="nonzero"/></clipPath><clipPath id="51bdf03078"><path d="M 332.507812 228 L 544 228 L 544 581 L 332.507812 581 Z M 332.507812 228 " clip-rule="nonzero"/></clipPath><clipPath id="f2a655cd44"><path d="M 895 229 L 1107.257812 229 L 1107.257812 582 L 895 582 Z M 895 229 " clip-rule="nonzero"/></clipPath></defs><g clip-path="url(#516a85e3f0)"><path fill="#ffffff" d="M 801.582031 160.246094 C 798.003906 159.144531 794.152344 158.457031 790.4375 158.457031 C 775.304688 158.457031 761.824219 168.226562 757.007812 182.535156 L 616.128906 605.171875 C 614.890625 608.75 614.339844 612.464844 614.339844 616.316406 C 614.339844 635.714844 630.296875 651.535156 649.558594 651.535156 C 664.691406 651.535156 678.175781 641.769531 682.992188 627.460938 L 823.871094 204.820312 C 825.109375 201.246094 825.660156 197.390625 825.660156 193.675781 C 825.660156 178.542969 815.890625 165.0625 801.582031 160.246094 " fill-opacity="1" fill-rule="nonzero"/></g><g clip-path="url(#51bdf03078)"><path fill="#ffffff" d="M 533.582031 239.214844 C 526.976562 232.613281 518.035156 228.898438 508.679688 228.898438 C 499.324219 228.898438 490.382812 232.613281 483.777344 239.214844 L 342.898438 380.09375 C 336.296875 386.699219 332.582031 395.640625 332.582031 404.996094 C 332.582031 414.351562 336.296875 423.292969 342.898438 429.898438 L 483.777344 570.777344 C 490.382812 577.105469 499.1875 580.683594 508.265625 580.683594 C 527.527344 580.683594 543.488281 564.722656 543.488281 545.464844 C 543.488281 536.382812 539.910156 527.578125 533.582031 520.972656 L 417.605469 404.996094 L 533.582031 289.019531 C 540.183594 282.414062 543.898438 273.472656 543.898438 264.117188 C 543.898438 254.761719 540.183594 245.820312 533.582031 239.214844 " fill-opacity="1" fill-rule="nonzero"/></g><g clip-path="url(#f2a655cd44)"><path fill="#ffffff" d="M 1097.097656 380.09375 L 956.21875 239.214844 C 949.617188 232.886719 940.8125 229.308594 931.730469 229.308594 C 912.46875 229.308594 896.511719 245.269531 896.511719 264.53125 C 896.511719 273.609375 900.089844 282.414062 906.417969 289.019531 L 1022.394531 404.996094 L 906.417969 520.972656 C 899.539062 527.578125 895.6875 536.796875 895.6875 546.289062 C 895.6875 565.6875 911.507812 581.507812 930.90625 581.507812 C 940.398438 581.507812 949.617188 577.65625 956.21875 570.777344 L 1097.097656 429.898438 C 1103.703125 423.292969 1107.417969 414.351562 1107.417969 404.996094 C 1107.417969 395.640625 1103.703125 386.699219 1097.097656 380.09375 " fill-opacity="1" fill-rule="nonzero"/></g></svg>