<svg xmlns="http://www.w3.org/2000/svg" xmlns:xlink="http://www.w3.org/1999/xlink" width="1920" zoomAndPan="magnify" viewBox="0 0 1440 809.999993" height="1080" preserveAspectRatio="xMidYMid meet" version="1.0"><defs><clipPath id="fdf37f0130"><path d="M 115 545 L 147 545 L 147 683.398438 L 115 683.398438 Z M 115 545 " clip-rule="nonzero"/></clipPath></defs><path fill="#599636" d="M 124.378906 129.019531 L 139.199219 156.894531 C 142.4375 161.9375 146.171875 166.578125 150.40625 170.816406 C 162.820312 183.230469 174.636719 196.246094 185.214844 210.183594 C 210.34375 243.183594 227.300781 279.832031 239.414062 319.507812 C 246.675781 343.738281 250.621094 368.570312 250.917969 393.699219 C 252.144531 468.796875 226.386719 533.292969 174.308594 586.894531 C 165.855469 595.40625 156.773438 603.179688 147.058594 610.214844 C 141.890625 610.214844 139.484375 606.136719 137.363281 602.640625 C 133.285156 595.84375 131 588.402344 129.789062 580.84375 C 127.96875 571.761719 126.757812 562.675781 127.371094 553.28125 L 127.371094 549.039062 C 127.070312 548.128906 122.527344 131.152344 124.335938 129.03125 Z M 124.378906 129.019531 " fill-opacity="1" fill-rule="nonzero"/><path fill="#6cac48" d="M 124.378906 128.121094 C 123.765625 126.898438 123.15625 127.820312 122.554688 128.417969 C 122.855469 134.472656 120.734375 139.921875 117.390625 145.078125 C 113.757812 150.242188 108.902344 154.160156 104.0625 158.402344 C 77.113281 181.722656 55.925781 209.882812 38.957031 241.375 C 16.546875 283.773438 4.746094 329.191406 1.429688 377.039062 C -0.0664062 394.308594 6.867188 455.171875 12.332031 472.726562 C 27.15625 519.367188 53.804688 558.421875 88.480469 592.332031 C 96.964844 600.492188 106.046875 608.078125 115.429688 615.339844 C 118.152344 615.339844 118.464844 612.921875 119.0625 611.097656 C 120.257812 607.226562 121.164062 603.289062 121.78125 599.28125 C 124.5 584.148438 126.023438 569 127.832031 553.867188 L 124.5 128.121094 Z M 124.378906 128.121094 " fill-opacity="1" fill-rule="nonzero"/><g clip-path="url(#fdf37f0130)"><path fill="#000000" d="M 139.242188 628.679688 C 139.851562 621.71875 143.320312 615.964844 146.816406 610.214844 C 143.183594 608.71875 140.449219 605.671875 138.328125 602.328125 C 136.507812 599.296875 135 595.527344 133.789062 592.332031 C 129.546875 579.621094 128.621094 566.292969 127.425781 553.265625 L 127.425781 545.378906 C 125.929688 546.605469 125.601562 556.882812 125.601562 558.40625 C 124.691406 572.332031 122.882812 585.96875 120.164062 599.28125 C 119.253906 604.722656 118.667969 610.1875 115.324219 615.027344 C 115.324219 615.640625 115.324219 616.253906 115.621094 617.148438 C 121.0625 633.195312 122.582031 649.554688 123.507812 666.210938 L 123.507812 672.261719 C 123.507812 679.523438 123.210938 678.011719 129.261719 680.417969 C 131.679688 681.332031 134.425781 681.644531 136.832031 683.453125 C 138.65625 683.453125 138.957031 681.957031 138.957031 680.730469 L 138.042969 670.738281 L 138.042969 642.863281 C 137.746094 638.023438 138.65625 633.167969 139.269531 628.625 Z M 139.242188 628.679688 " fill-opacity="1" fill-rule="nonzero"/></g><path fill="#47474a" d="M 369.175781 502.027344 L 369.175781 530.863281 C 369.144531 532.007812 369.207031 533.148438 369.371094 534.28125 C 369.746094 537.695312 371.839844 539.777344 374.925781 540.734375 C 377.804688 541.492188 380.71875 542.0625 383.671875 542.445312 C 385.378906 542.636719 385.949219 543.386719 386.144531 545.21875 C 386.335938 551.675781 385.769531 552.441406 379.507812 552.050781 C 364.898438 551.289062 350.277344 551.109375 335.671875 552.050781 L 334.285156 552.050781 C 329.730469 552.246094 329.355469 551.859375 329.355469 547.304688 C 329.355469 546.539062 329.550781 545.59375 329.550781 544.832031 C 329.550781 543.445312 330.492188 542.75 331.824219 542.75 C 334.878906 542.375 337.714844 541.609375 340.574219 541.042969 C 344.558594 540.097656 346.820312 537.625 347.210938 533.640625 C 347.765625 529.28125 347.765625 524.726562 347.765625 520.351562 L 347.960938 469.507812 C 347.992188 468.769531 347.917969 468.042969 347.742188 467.328125 C 347.566406 466.609375 347.296875 465.929688 346.925781 465.292969 C 346.558594 464.652344 346.105469 464.078125 345.574219 463.566406 C 345.042969 463.054688 344.449219 462.628906 343.792969 462.289062 C 340.351562 460.375 336.742188 458.855469 332.964844 457.734375 C 331.828125 457.359375 330.6875 457.179688 329.742188 456.59375 C 326.964844 455.261719 326.898438 452.804688 329.550781 451.277344 C 330.492188 450.722656 331.632812 450.332031 332.769531 450.136719 C 344.316406 448.433594 355.570312 445.589844 366.539062 441.597656 C 368.816406 440.835938 369.382812 441.042969 369.59375 443.308594 C 369.785156 444.695312 369.59375 446.363281 369.398438 447.667969 C 369.023438 450.136719 369.023438 452.597656 369.023438 454.886719 C 369.023438 455.832031 369.21875 456.789062 370.160156 457.359375 C 371.105469 457.929688 372.0625 457.359375 372.9375 456.804688 C 376.921875 453.75 380.910156 450.917969 385.269531 448.472656 C 391.515625 445.058594 398.179688 442.015625 405.402344 441.070312 C 414.148438 439.933594 421.714844 442.210938 428.367188 447.902344 C 431.128906 450.375 433.53125 453.15625 435.574219 456.246094 C 437.472656 459.023438 437.65625 459.09375 440.125 457.191406 C 447.347656 451.875 454.925781 447.140625 463.089844 443.722656 C 471.628906 440.113281 480.363281 439.558594 489.082031 442.585938 C 497.996094 445.804688 504.078125 452.070312 507.6875 460.609375 C 510.742188 467.4375 512.050781 474.492188 512.050781 481.851562 L 512.050781 532.695312 C 512.050781 536.113281 513.4375 538.25 516.796875 539.917969 C 520.40625 541.304688 524.390625 542 528.183594 542.761719 C 530.65625 543.320312 530.65625 543.320312 530.65625 545.816406 C 530.28125 552.066406 529.710938 552.453125 523.628906 552.066406 C 508.386719 551.210938 493.148438 551.210938 477.90625 552.066406 C 474.851562 552.261719 474.851562 552.261719 474.683594 549.21875 L 474.683594 548.273438 C 474.492188 543.136719 474.492188 543.136719 479.433594 542.027344 L 484.363281 540.695312 C 485.199219 540.496094 485.976562 540.167969 486.703125 539.710938 C 487.425781 539.25 488.054688 538.6875 488.589844 538.015625 C 489.125 537.34375 489.53125 536.601562 489.816406 535.792969 C 490.101562 534.984375 490.246094 534.152344 490.25 533.292969 L 490.804688 519.0625 L 490.429688 481.878906 C 490.285156 478.535156 489.589844 475.308594 488.347656 472.199219 C 483.597656 460.621094 473.171875 456.457031 463.105469 457.59375 C 455.511719 458.359375 448.875 461.386719 442.613281 465.757812 C 441.277344 466.703125 440.335938 467.839844 440.527344 469.742188 C 442.238281 481.894531 441.085938 494.042969 441.292969 506.175781 L 441.292969 532.558594 C 441.292969 537.304688 443.195312 539.582031 447.75 540.722656 L 456.496094 542.625 C 457.828125 542.820312 458.578125 543.386719 458.578125 544.902344 L 458.578125 546.289062 C 458.386719 551.609375 458.023438 551.84375 452.691406 551.789062 C 437.515625 551.023438 422.328125 551.234375 407.34375 551.789062 C 402.207031 551.980469 401.789062 551.414062 402.027344 546.234375 C 402.222656 543.179688 402.582031 543.011719 405.441406 542.445312 L 411.691406 541.304688 C 417.246094 540.167969 419.285156 538.082031 419.660156 532.195312 L 420.214844 519.476562 L 419.839844 481.335938 C 419.464844 476.589844 418.453125 472.035156 415.855469 467.675781 C 412.066406 460.648438 406.136719 457.054688 398.015625 456.664062 C 389.851562 456.109375 382.644531 459.136719 375.800781 462.914062 C 371.050781 465.6875 368.96875 468.980469 369.34375 474.492188 L 369.34375 502.191406 Z M 726.664062 503.179688 L 726.664062 529.933594 C 726.695312 531.835938 726.820312 533.734375 727.039062 535.625 C 727.078125 536.257812 727.21875 536.863281 727.457031 537.449219 C 727.695312 538.035156 728.019531 538.566406 728.429688 539.042969 C 728.839844 539.523438 729.316406 539.925781 729.855469 540.25 C 730.398438 540.578125 730.976562 540.808594 731.59375 540.945312 C 734.878906 541.902344 738.226562 542.472656 741.644531 542.652344 C 743.546875 542.847656 743.921875 543.597656 744.117188 545.125 L 744.117188 546.457031 C 743.921875 553.09375 743.171875 553.855469 736.714844 553.480469 C 722.277344 552.539062 707.878906 552.71875 693.453125 553.480469 L 687.898438 553.675781 C 686.757812 553.675781 686.507812 553.121094 686.191406 552.34375 C 685.628906 549.6875 685.628906 547.03125 686.191406 544.375 C 686.382812 543.234375 687.132812 542.984375 688.273438 542.664062 C 691.050781 542.292969 693.410156 541.722656 696.046875 541.277344 C 700.796875 540.140625 702.503906 538.222656 702.683594 533.308594 L 703.242188 517.367188 L 703.242188 470.6875 C 703.242188 467.273438 701.90625 465.191406 698.878906 463.664062 C 695.464844 461.761719 691.855469 460.441406 688.050781 459.109375 C 686.910156 458.734375 685.773438 458.34375 684.828125 457.773438 C 682.359375 456.066406 682.050781 453.609375 684.453125 451.707031 C 685.558594 450.800781 686.820312 450.292969 688.246094 450.179688 C 700.394531 448.277344 712.15625 445.625 723.539062 441.070312 C 724.871094 440.515625 725.441406 440.878906 726.011719 442.015625 C 726.582031 443.15625 726.773438 444.488281 726.566406 445.808594 L 726.011719 454.71875 C 726.011719 455.859375 725.457031 457.496094 726.386719 457.941406 C 727.523438 458.707031 728.289062 456.996094 729.234375 456.554688 C 734.859375 451.832031 740.996094 447.914062 747.644531 444.792969 C 753.53125 442.015625 759.585938 440.238281 766.429688 440.628906 C 779.148438 441.390625 788.257812 447.847656 794.128906 459.039062 C 797.183594 464.925781 798.488281 471.367188 799.058594 478.019531 L 799.613281 491.902344 L 799.808594 533.835938 C 800.003906 537.054688 801.140625 539.152344 804.363281 540.292969 C 807.707031 541.40625 811.125 542.230469 814.609375 542.761719 C 817.664062 543.136719 817.832031 543.707031 818.023438 546.554688 L 818.023438 547.496094 C 817.648438 553.953125 817.261719 554.132812 810.804688 553.746094 C 796.636719 552.988281 782.472656 552.988281 768.304688 553.746094 C 766.402344 553.941406 764.511719 553.746094 762.75 553.941406 C 761.613281 553.941406 760.847656 553.746094 760.667969 552.605469 C 760.292969 550.136719 759.902344 547.679688 760.472656 545.011719 C 760.667969 543.875 761.238281 543.304688 762.554688 543.109375 L 771.304688 541.722656 C 774.359375 540.957031 776.050781 538.945312 776.441406 536.167969 L 776.816406 530.851562 L 776.621094 491.195312 C 776.621094 486.640625 776.425781 482.085938 775.484375 477.53125 C 773.207031 467.8125 765.804688 460.871094 755.765625 459.898438 C 747.019531 458.957031 739.105469 461.234375 731.855469 465.96875 C 728.246094 468.246094 726.71875 471.464844 726.71875 475.449219 L 726.71875 504.109375 C 726.71875 503.554688 726.71875 503.554688 726.914062 503.554688 Z M 726.664062 503.179688 " fill-opacity="1" fill-rule="nonzero"/><path fill="#000000" d="M 1282.367188 449.472656 C 1280.285156 435.617188 1275.148438 423.285156 1266.234375 412.46875 C 1262.351562 407.691406 1257.933594 403.472656 1252.988281 399.808594 C 1248.039062 396.144531 1242.710938 393.15625 1237.007812 390.835938 C 1225.066406 385.910156 1212.335938 384.382812 1199.4375 384.007812 C 1194.117188 383.8125 1121.640625 384.949219 1116.324219 384.007812 C 1114.988281 383.8125 1114.046875 384.199219 1113.269531 385.339844 C 1112.324219 386.726562 1111.367188 388.183594 1110.796875 389.699219 C 1108.519531 394.835938 1108.519531 394.449219 1114.015625 395.195312 C 1118.570312 395.960938 1122.929688 396.335938 1127.304688 397.667969 C 1131.289062 399 1134.136719 401.277344 1135.082031 405.636719 C 1135.457031 407.722656 1135.84375 474.507812 1135.84375 505.636719 L 1135.082031 527.851562 C 1134.886719 529.558594 1134.707031 531.265625 1134.136719 532.78125 C 1133.371094 535.058594 1132.054688 536.945312 1129.777344 537.917969 C 1127.25 539.105469 1124.59375 539.800781 1121.808594 540 C 1116.667969 540.554688 1115.917969 540.761719 1114.210938 546.457031 L 1113.65625 548.539062 C 1113.28125 551.011719 1113.460938 551.386719 1115.933594 551.386719 L 1172.667969 551.941406 L 1194.882812 551.566406 L 1210.253906 549.664062 C 1227.703125 546.441406 1243.269531 539.222656 1256.542969 527.65625 C 1264.199219 520.894531 1270.273438 512.925781 1274.761719 503.746094 C 1280.078125 493.125 1282.355469 481.53125 1282.925781 469.785156 C 1283.867188 463.148438 1283.480469 456.316406 1282.367188 449.484375 Z M 1254.847656 476.410156 C 1254.085938 488.558594 1251.628906 500.316406 1245.367188 510.941406 C 1237.398438 524.796875 1226.011719 534.472656 1210.265625 537.875 C 1203.433594 539.265625 1196.601562 539.957031 1189.4375 539.015625 C 1184.300781 538.457031 1179.386719 537.875 1174.636719 536.167969 C 1166.097656 533.113281 1163.058594 527.835938 1162.878906 519.507812 L 1162.683594 405.097656 C 1162.683594 398.265625 1165.738281 396.765625 1170.652344 396.558594 C 1178.054688 396.003906 1185.648438 396.183594 1193.050781 396.933594 C 1200.964844 397.699219 1208.621094 399.550781 1216.015625 402.488281 C 1221.515625 404.777344 1226.511719 407.878906 1231.007812 411.789062 C 1241.257812 420.535156 1248.085938 431.503906 1251.835938 444.417969 C 1254.890625 454.859375 1255.445312 465.480469 1254.890625 476.101562 Z M 1440.070312 495.015625 C 1440.070312 493.875 1440.070312 492.929688 1439.875 491.792969 C 1438.167969 481.351562 1432.65625 473.382812 1424.132812 467.3125 C 1418.632812 463.328125 1412.371094 460.675781 1405.914062 458.773438 C 1404.777344 458.398438 1403.832031 458.011719 1402.691406 457.832031 C 1402.886719 456.886719 1403.457031 456.691406 1404.027344 456.496094 C 1407.816406 454.59375 1411.425781 452.511719 1414.648438 449.667969 C 1420.535156 444.738281 1424.367188 438.65625 1426.410156 431.253906 C 1427.546875 427.269531 1427.546875 423.285156 1427.171875 419.105469 C 1427.015625 416.660156 1426.59375 414.265625 1425.898438 411.917969 C 1425.203125 409.566406 1424.257812 407.324219 1423.058594 405.191406 C 1421.859375 403.054688 1420.4375 401.078125 1418.792969 399.261719 C 1417.148438 397.449219 1415.320312 395.835938 1413.316406 394.433594 C 1404.566406 387.976562 1394.335938 385.324219 1383.710938 385.128906 C 1363.21875 384.753906 1342.546875 385.128906 1322.066406 385.128906 C 1316.179688 385.128906 1310.304688 385.503906 1304.222656 384.574219 C 1303.085938 384.382812 1301.445312 384.019531 1300.613281 385.339844 C 1299.226562 387.808594 1297.558594 390.269531 1297.003906 393.113281 C 1296.808594 394.449219 1297.199219 395.195312 1298.710938 395.390625 L 1311.804688 397.292969 C 1316.941406 398.058594 1320.550781 400.902344 1320.914062 405.457031 C 1321.285156 408.609375 1321.46875 411.769531 1321.46875 414.941406 L 1321.09375 450.417969 L 1320.898438 520.617188 C 1320.898438 524.78125 1320.34375 528.78125 1319.566406 532.945312 C 1319.472656 533.609375 1319.285156 534.242188 1319.011719 534.851562 C 1318.734375 535.457031 1318.378906 536.015625 1317.941406 536.519531 C 1317.503906 537.023438 1317.003906 537.457031 1316.441406 537.816406 C 1315.878906 538.179688 1315.277344 538.453125 1314.636719 538.640625 C 1310.847656 539.777344 1307.234375 540.917969 1303.25 540.917969 C 1302.71875 540.867188 1302.191406 540.90625 1301.671875 541.03125 C 1301.152344 541.160156 1300.671875 541.371094 1300.222656 541.664062 C 1299.773438 541.957031 1299.386719 542.316406 1299.0625 542.738281 C 1298.734375 543.164062 1298.488281 543.628906 1298.320312 544.136719 C 1297.558594 545.84375 1296.933594 547.746094 1296.613281 549.457031 C 1296.238281 551.734375 1296.808594 552.511719 1299.085938 552.230469 C 1300.792969 552.039062 1363.414062 553.566406 1375.171875 552.425781 C 1382.199219 551.664062 1389.058594 550.71875 1396.042969 548.636719 C 1407.984375 544.847656 1419.007812 539.332031 1427.726562 530.03125 C 1434.945312 522.4375 1439.113281 513.328125 1439.488281 502.707031 C 1440.042969 500.234375 1440.042969 497.777344 1440.042969 495.109375 Z M 1348.042969 417.261719 L 1348.597656 402.082031 C 1348.597656 399.238281 1349.738281 397.917969 1352.582031 397.335938 C 1357.136719 396.390625 1361.691406 396.78125 1366.246094 396.960938 C 1370.800781 397.335938 1375.160156 397.90625 1379.714844 399.238281 C 1388.046875 401.707031 1394.515625 406.457031 1398.320312 414.414062 C 1400.066406 418.074219 1400.949219 421.9375 1400.972656 425.992188 C 1401.167969 431.3125 1400.777344 436.433594 1398.695312 441.542969 C 1395.472656 448.570312 1390.363281 453.125 1382.949219 454.457031 C 1375.535156 455.789062 1354.484375 455.21875 1351.265625 455.21875 C 1348.417969 455.21875 1348.210938 454.84375 1348.210938 452 L 1348.210938 434.128906 C 1347.761719 428.566406 1347.699219 423 1348.015625 417.425781 Z M 1409.691406 519.339844 C 1406.46875 527.878906 1400.582031 533.78125 1392.238281 536.972656 C 1387.683594 538.679688 1383.128906 539.75 1378.355469 539.445312 C 1372.464844 539.25 1366.59375 539.445312 1360.71875 538.304688 C 1352.75 536.597656 1349.140625 529.003906 1348.570312 523.503906 C 1347.625 513.828125 1348.195312 503.957031 1348.015625 496.75 L 1348.015625 471.703125 C 1348.015625 468.648438 1348.390625 467.714844 1351.625 467.714844 L 1369.46875 467.910156 L 1381.617188 469.300781 C 1390.15625 471.203125 1397.929688 474.4375 1404.011719 481.058594 C 1408.941406 486.378906 1411.605469 492.820312 1412.175781 499.84375 C 1412.730469 506.484375 1412.371094 512.9375 1409.898438 519.199219 Z M 1409.691406 519.339844 " fill-opacity="1" fill-rule="nonzero"/><path fill="#47474a" d="M 927.617188 462.175781 L 932.546875 462.941406 C 937.863281 463.132812 944.125 461.234375 946.011719 453.832031 C 946.535156 452.066406 946.792969 450.257812 946.792969 448.417969 C 946.792969 446.574219 946.535156 444.769531 946.011719 443 C 944.875 443 944.304688 443.945312 943.734375 444.335938 C 940.890625 446.613281 937.667969 447.945312 934.253906 448.320312 C 927.421875 449.082031 920.589844 448.695312 913.953125 446.238281 L 904.652344 443.015625 C 898.105469 440.871094 891.394531 439.992188 884.519531 440.378906 C 874.839844 441.140625 865.734375 444.363281 857.195312 448.917969 C 848.085938 453.847656 841.640625 461.246094 838.589844 471.3125 C 836.878906 477.199219 836.6875 483.253906 837.449219 489.335938 C 839.351562 503.191406 846.558594 512.871094 859.457031 517.992188 C 860.21875 518.1875 860.789062 518.546875 861.539062 518.757812 C 863.246094 519.699219 863.441406 520.660156 861.914062 521.976562 L 857.164062 525.199219 L 845.78125 532.222656 C 842.933594 533.933594 842.558594 535.277344 843.503906 538.292969 C 844.066406 540.066406 844.867188 541.726562 845.898438 543.273438 C 846.929688 544.820312 848.152344 546.195312 849.570312 547.402344 C 852.191406 549.648438 855.101562 551.421875 858.304688 552.71875 C 860.386719 553.664062 860.386719 554.105469 858.5 555.773438 L 847.667969 563.546875 C 844.058594 566.324219 840.449219 569.101562 837.421875 572.65625 C 836.367188 573.78125 835.46875 575.019531 834.722656 576.367188 C 833.972656 577.714844 833.402344 579.136719 833.003906 580.625 C 832.609375 582.113281 832.398438 583.628906 832.375 585.171875 C 832.351562 586.710938 832.515625 588.234375 832.867188 589.734375 C 833.574219 593.027344 834.765625 596.132812 836.453125 599.050781 C 838.136719 601.96875 840.226562 604.554688 842.726562 606.8125 C 845.191406 609.097656 847.902344 611.042969 850.859375 612.648438 C 853.8125 614.253906 856.917969 615.46875 860.179688 616.296875 C 870.800781 619.351562 881.8125 619.515625 892.625 617.433594 C 908.179688 614.589844 921.785156 607.714844 932.476562 595.996094 C 939.875 588.222656 944.234375 579.113281 944.625 568.226562 C 944.675781 567.449219 944.691406 566.667969 944.675781 565.886719 C 944.660156 565.105469 944.605469 564.328125 944.519531 563.550781 C 944.4375 562.773438 944.316406 562.003906 944.164062 561.238281 C 944.007812 560.472656 943.824219 559.714844 943.601562 558.964844 C 943.382812 558.214844 943.128906 557.476562 942.84375 556.75 C 942.558594 556.023438 942.242188 555.308594 941.894531 554.609375 C 941.546875 553.910156 941.171875 553.230469 940.761719 552.5625 C 940.355469 551.894531 939.917969 551.25 939.453125 550.621094 C 938.992188 549.992188 938.5 549.386719 937.980469 548.800781 C 937.464844 548.21875 936.921875 547.65625 936.355469 547.121094 C 935.785156 546.582031 935.195312 546.070312 934.585938 545.585938 C 933.972656 545.101562 933.339844 544.644531 932.6875 544.214844 C 932.035156 543.785156 931.367188 543.382812 930.679688 543.015625 C 929.992188 542.644531 929.289062 542.304688 928.570312 541.996094 C 927.855469 541.683594 927.125 541.40625 926.382812 541.164062 C 925.640625 540.917969 924.890625 540.707031 924.132812 540.527344 L 913.882812 538.625 L 882.574219 535.847656 C 879.160156 535.652344 875.742188 535.085938 872.898438 533.378906 C 869.285156 531.101562 868.34375 526.738281 870.621094 523.894531 C 872.328125 521.8125 874.410156 520.476562 877.078125 520.285156 L 883.144531 519.726562 C 886.125 519.425781 889.058594 518.882812 891.949219 518.097656 C 894.839844 517.316406 897.648438 516.304688 900.375 515.0625 C 903.101562 513.820312 905.707031 512.367188 908.195312 510.699219 C 910.683594 509.03125 913.019531 507.171875 915.203125 505.121094 C 917.550781 502.949219 919.546875 500.488281 921.195312 497.746094 C 922.839844 495.003906 924.070312 492.082031 924.882812 488.988281 C 927.15625 480.824219 927.15625 472.328125 925.253906 463.996094 C 924.699219 461.914062 924.882812 461.71875 927.53125 462.09375 Z M 881.101562 556.6875 C 882.242188 556.882812 883.378906 556.6875 884.519531 556.6875 C 892.488281 557.0625 900.652344 557.632812 908.425781 559.742188 C 910.96875 560.496094 913.4375 561.445312 915.828125 562.589844 C 923.421875 566.753906 926.269531 573.976562 925.3125 581.75 C 924.171875 590.289062 919.425781 596.359375 912.023438 600.355469 C 907.09375 603.132812 901.582031 604.339844 895.890625 604.910156 C 893.808594 605.105469 891.90625 604.910156 889.820312 604.910156 C 883.183594 605.105469 876.730469 604.355469 870.46875 601.691406 C 866.105469 599.980469 862.496094 597.523438 859.277344 594.09375 C 852.640625 587.457031 849.558594 575.308594 859.46875 565.4375 C 865.539062 559.882812 872.382812 555.953125 881.101562 556.6875 Z M 902.734375 497.484375 C 898.75 507.539062 890.015625 510.578125 881.296875 509.246094 C 873.328125 508.105469 867.441406 503.746094 863.664062 496.527344 C 858.734375 486.851562 857.414062 476.8125 860.246094 466.355469 C 862.332031 458.582031 867.078125 452.695312 875.425781 451.359375 C 886.046875 449.457031 896.25 453.261719 901.609375 463.882812 C 904.386719 469.023438 905.59375 475.269531 905.59375 484.183594 C 905.402344 487.792969 904.652344 492.722656 902.75 497.472656 Z M 663.667969 484.574219 C 661.960938 474.324219 658.171875 465.023438 651.144531 457.246094 C 640.703125 445.667969 627.429688 440.585938 612.433594 440.542969 C 599.339844 440.351562 587.027344 444.15625 576 450.984375 C 573.316406 452.59375 570.804688 454.4375 568.472656 456.519531 C 566.136719 458.605469 564.019531 460.890625 562.117188 463.375 C 560.21875 465.859375 558.566406 468.503906 557.167969 471.300781 C 555.769531 474.101562 554.648438 477.007812 553.800781 480.019531 C 550.578125 491.027344 550.746094 502.234375 553.246094 513.410156 C 559.882812 543.402344 583.039062 556.285156 610.726562 554.398438 C 618.890625 553.84375 626.667969 551.175781 634.054688 547.566406 C 645.0625 542.429688 653.035156 534.28125 658.53125 523.464844 C 662.890625 514.550781 664.78125 505.050781 664.597656 494.234375 L 663.65625 484.558594 Z M 636.734375 526.699219 C 636.394531 527.761719 635.984375 528.792969 635.496094 529.792969 C 635.007812 530.796875 634.453125 531.757812 633.824219 532.679688 C 633.199219 533.601562 632.507812 534.472656 631.757812 535.292969 C 631.003906 536.113281 630.195312 536.875 629.332031 537.578125 C 628.46875 538.285156 627.558594 538.921875 626.601562 539.492188 C 625.648438 540.066406 624.65625 540.566406 623.625 540.996094 C 622.597656 541.421875 621.542969 541.773438 620.464844 542.050781 C 619.386719 542.324219 618.292969 542.519531 617.183594 542.636719 C 608.851562 543.777344 601.050781 541.695312 594.039062 536.75 C 591.507812 534.890625 589.230469 532.753906 587.210938 530.347656 C 585.1875 527.945312 583.480469 525.332031 582.082031 522.519531 C 574.308594 506.578125 572.972656 489.890625 576.945312 472.8125 C 577.585938 470.167969 578.582031 467.667969 579.9375 465.3125 C 581.292969 462.957031 582.953125 460.835938 584.914062 458.957031 C 591.941406 452.5 600.089844 450.984375 609.214844 452.886719 C 617.960938 454.789062 624.582031 459.523438 630.039062 466.746094 C 635.496094 473.964844 638.011719 482.296875 639.523438 491.042969 C 640.289062 495.402344 640.289062 499.957031 640.46875 502.804688 C 640.46875 511.910156 639.703125 519.464844 636.859375 526.710938 Z M 1078.265625 486.101562 C 1076.875 475.089844 1072.765625 465.035156 1064.976562 456.691406 C 1054.730469 445.5 1041.441406 440.753906 1026.65625 440.558594 C 1013.9375 440.363281 1002.175781 443.972656 991.359375 450.234375 C 979.210938 457.457031 970.867188 467.6875 967.644531 481.546875 C 966.691406 485.296875 966.070312 489.101562 965.78125 492.960938 C 965.496094 496.820312 965.546875 500.675781 965.933594 504.523438 C 966.324219 508.375 967.042969 512.160156 968.09375 515.886719 C 969.148438 519.609375 970.515625 523.214844 972.199219 526.699219 C 978.449219 539.984375 989.082031 548.523438 1003.132812 552.316406 C 1018.683594 556.480469 1033.5 554.59375 1047.914062 547.566406 C 1060.4375 541.5 1069.351562 532.015625 1074.472656 519.105469 C 1077.527344 511.507812 1078.640625 503.359375 1078.832031 493.863281 C 1079.027344 492.152344 1078.640625 489.113281 1078.277344 486.085938 Z M 1052.078125 524.242188 C 1049.023438 534.488281 1042.59375 541.125 1031.777344 542.652344 C 1023.808594 543.789062 1016.226562 541.886719 1009.382812 537.335938 C 1003.496094 533.347656 999.332031 528.03125 996.289062 521.785156 C 992.875 515.148438 990.972656 508.121094 990.222656 500.914062 C 989.082031 492 989.082031 483.28125 991.167969 474.355469 C 991.5625 472.589844 992.132812 470.878906 992.875 469.230469 C 998.191406 455.941406 1009.953125 449.875 1023.808594 452.914062 C 1033.113281 455 1040.125 460.136719 1045.441406 467.910156 C 1050.578125 475.507812 1053.035156 483.851562 1054.1875 492.902344 C 1054.742188 496.511719 1054.953125 500.304688 1054.742188 503.523438 C 1054.742188 510.925781 1054.1875 517.757812 1051.96875 524.394531 Z M 1052.078125 524.242188 " fill-opacity="1" fill-rule="nonzero"/></svg>