<svg xmlns="http://www.w3.org/2000/svg" xmlns:xlink="http://www.w3.org/1999/xlink" width="1920" zoomAndPan="magnify" viewBox="0 0 1440 809.999993" height="1080" preserveAspectRatio="xMidYMid meet" version="1.0"><defs><clipPath id="7cb0ddae74"><path d="M 315 0 L 1125 0 L 1125 810 L 315 810 Z M 315 0 " clip-rule="nonzero"/></clipPath></defs><g clip-path="url(#7cb0ddae74)"><path fill="#f03c2e" d="M 1109.710938 368.929688 L 756.070312 15.289062 C 754.863281 14.082031 753.597656 12.933594 752.277344 11.851562 C 750.957031 10.765625 749.585938 9.75 748.167969 8.800781 C 746.746094 7.851562 745.285156 6.972656 743.777344 6.167969 C 742.269531 5.363281 740.730469 4.632812 739.152344 3.980469 C 737.570312 3.324219 735.964844 2.75 734.332031 2.253906 C 732.695312 1.757812 731.042969 1.34375 729.367188 1.007812 C 727.691406 0.675781 726.003906 0.425781 724.300781 0.257812 C 722.601562 0.0898438 720.898438 0.0078125 719.191406 0.0078125 C 717.480469 0.0078125 715.777344 0.0898438 714.078125 0.257812 C 712.378906 0.425781 710.691406 0.675781 709.015625 1.007812 C 707.339844 1.34375 705.683594 1.757812 704.046875 2.253906 C 702.414062 2.75 700.808594 3.324219 699.230469 3.980469 C 697.652344 4.632812 696.109375 5.363281 694.601562 6.167969 C 693.097656 6.972656 691.632812 7.851562 690.210938 8.800781 C 688.792969 9.75 687.421875 10.765625 686.101562 11.851562 C 684.78125 12.933594 683.515625 14.082031 682.308594 15.289062 L 608.902344 88.695312 L 702.054688 181.84375 C 723.722656 174.25 748.527344 179.441406 765.789062 196.703125 C 767.835938 198.75 769.726562 200.933594 771.464844 203.246094 C 773.203125 205.558594 774.773438 207.980469 776.175781 210.511719 C 777.574219 213.046875 778.789062 215.664062 779.824219 218.367188 C 780.859375 221.070312 781.699219 223.832031 782.34375 226.652344 C 782.992188 229.472656 783.441406 232.324219 783.6875 235.207031 C 783.933594 238.089844 783.980469 240.976562 783.824219 243.867188 C 783.667969 246.753906 783.3125 249.621094 782.753906 252.460938 C 782.195312 255.296875 781.445312 258.085938 780.496094 260.820312 L 870.28125 350.601562 C 892 343.109375 917.058594 347.945312 934.398438 365.335938 C 935.835938 366.773438 937.199219 368.277344 938.492188 369.847656 C 939.78125 371.421875 940.992188 373.050781 942.121094 374.742188 C 943.253906 376.433594 944.296875 378.175781 945.257812 379.96875 C 946.214844 381.761719 947.085938 383.597656 947.863281 385.476562 C 948.644531 387.355469 949.328125 389.269531 949.917969 391.214844 C 950.507812 393.164062 951.003906 395.132812 951.402344 397.128906 C 951.796875 399.121094 952.097656 401.132812 952.296875 403.15625 C 952.496094 405.179688 952.59375 407.207031 952.59375 409.242188 C 952.59375 411.277344 952.496094 413.304688 952.296875 415.328125 C 952.097656 417.351562 951.800781 419.363281 951.402344 421.359375 C 951.007812 423.351562 950.511719 425.324219 949.921875 427.269531 C 949.332031 429.214844 948.648438 431.128906 947.867188 433.007812 C 947.089844 434.886719 946.222656 436.722656 945.261719 438.515625 C 944.304688 440.308594 943.261719 442.050781 942.128906 443.742188 C 941 445.433594 939.789062 447.066406 938.5 448.636719 C 937.207031 450.210938 935.84375 451.714844 934.40625 453.152344 C 932.96875 454.589844 931.460938 455.957031 929.890625 457.246094 C 928.316406 458.535156 926.683594 459.746094 924.992188 460.875 C 923.300781 462.003906 921.558594 463.046875 919.765625 464.007812 C 917.972656 464.964844 916.136719 465.832031 914.257812 466.609375 C 912.375 467.386719 910.464844 468.074219 908.515625 468.664062 C 906.570312 469.253906 904.601562 469.746094 902.605469 470.140625 C 900.609375 470.539062 898.601562 470.835938 896.578125 471.035156 C 894.550781 471.230469 892.523438 471.332031 890.488281 471.332031 C 888.457031 471.328125 886.425781 471.230469 884.402344 471.027344 C 882.378906 470.828125 880.371094 470.53125 878.375 470.132812 C 876.378906 469.734375 874.410156 469.238281 872.464844 468.648438 C 870.519531 468.058594 868.605469 467.371094 866.726562 466.59375 C 864.847656 465.8125 863.011719 464.945312 861.21875 463.984375 C 859.425781 463.023438 857.683594 461.980469 855.992188 460.847656 C 854.304688 459.714844 852.671875 458.503906 851.101562 457.214844 C 849.53125 455.921875 848.023438 454.558594 846.585938 453.117188 C 828.363281 434.894531 823.855469 408.0625 833.070312 385.609375 L 749.335938 301.875 L 749.335938 522.222656 C 755.453125 525.25 760.9375 529.164062 765.789062 533.96875 C 767.226562 535.40625 768.589844 536.910156 769.882812 538.480469 C 771.171875 540.050781 772.378906 541.683594 773.507812 543.375 C 774.640625 545.0625 775.683594 546.804688 776.640625 548.597656 C 777.601562 550.390625 778.46875 552.226562 779.246094 554.105469 C 780.023438 555.984375 780.707031 557.894531 781.296875 559.839844 C 781.886719 561.785156 782.382812 563.753906 782.777344 565.75 C 783.175781 567.742188 783.472656 569.75 783.671875 571.773438 C 783.871094 573.796875 783.972656 575.824219 783.972656 577.859375 C 783.972656 579.890625 783.871094 581.921875 783.671875 583.941406 C 783.472656 585.964844 783.175781 587.976562 782.777344 589.96875 C 782.382812 591.960938 781.886719 593.933594 781.296875 595.878906 C 780.707031 597.824219 780.023438 599.734375 779.246094 601.613281 C 778.46875 603.492188 777.601562 605.328125 776.640625 607.121094 C 775.683594 608.914062 774.640625 610.65625 773.507812 612.34375 C 772.378906 614.035156 771.171875 615.664062 769.882812 617.238281 C 768.589844 618.808594 767.226562 620.3125 765.789062 621.75 C 764.351562 623.1875 762.847656 624.550781 761.277344 625.839844 C 759.707031 627.132812 758.074219 628.339844 756.382812 629.46875 C 754.695312 630.601562 752.953125 631.644531 751.160156 632.601562 C 749.367188 633.558594 747.53125 634.429688 745.652344 635.207031 C 743.773438 635.984375 741.863281 636.667969 739.917969 637.257812 C 737.972656 637.847656 736.003906 638.34375 734.007812 638.738281 C 732.015625 639.136719 730.003906 639.433594 727.984375 639.632812 C 725.960938 639.832031 723.929688 639.929688 721.898438 639.929688 C 719.867188 639.929688 717.835938 639.832031 715.8125 639.632812 C 713.792969 639.433594 711.78125 639.136719 709.789062 638.738281 C 707.792969 638.34375 705.824219 637.847656 703.878906 637.257812 C 701.933594 636.667969 700.023438 635.984375 698.144531 635.207031 C 696.265625 634.429688 694.429688 633.558594 692.636719 632.601562 C 690.84375 631.644531 689.101562 630.601562 687.414062 629.46875 C 685.722656 628.339844 684.089844 627.132812 682.519531 625.839844 C 680.949219 624.550781 679.445312 623.1875 678.007812 621.75 C 676.566406 620.3125 675.203125 618.8125 673.910156 617.238281 C 672.621094 615.667969 671.410156 614.039062 670.277344 612.347656 C 669.148438 610.660156 668.101562 608.917969 667.140625 607.125 C 666.183594 605.332031 665.3125 603.496094 664.535156 601.617188 C 663.753906 599.738281 663.070312 597.828125 662.480469 595.882812 C 661.886719 593.9375 661.394531 591.964844 660.996094 589.972656 C 660.597656 587.976562 660.300781 585.96875 660.101562 583.945312 C 659.902344 581.921875 659.800781 579.890625 659.800781 577.859375 C 659.800781 575.824219 659.902344 573.796875 660.101562 571.773438 C 660.300781 569.75 660.597656 567.742188 660.996094 565.746094 C 661.394531 563.753906 661.886719 561.78125 662.480469 559.835938 C 663.070312 557.890625 663.753906 555.980469 664.535156 554.101562 C 665.3125 552.222656 666.183594 550.386719 667.140625 548.59375 C 668.101562 546.800781 669.148438 545.058594 670.277344 543.371094 C 671.410156 541.679688 672.621094 540.050781 673.910156 538.476562 C 675.203125 536.90625 676.566406 535.402344 678.007812 533.96875 C 684.003906 527.992188 690.664062 523.460938 698.332031 520.425781 L 698.332031 298.03125 C 690.941406 294.992188 684.003906 290.511719 678.007812 284.488281 C 676.925781 283.40625 675.882812 282.289062 674.882812 281.128906 C 673.886719 279.972656 672.929688 278.777344 672.019531 277.550781 C 671.109375 276.324219 670.242188 275.0625 669.425781 273.769531 C 668.609375 272.476562 667.839844 271.15625 667.121094 269.808594 C 666.398438 268.457031 665.730469 267.085938 665.113281 265.6875 C 664.492188 264.289062 663.929688 262.867188 663.414062 261.425781 C 662.902344 259.988281 662.441406 258.527344 662.035156 257.054688 C 661.628906 255.578125 661.28125 254.09375 660.984375 252.59375 C 660.6875 251.089844 660.449219 249.582031 660.265625 248.0625 C 660.082031 246.546875 659.953125 245.023438 659.882812 243.496094 C 659.8125 241.96875 659.796875 240.441406 659.839844 238.910156 C 659.882812 237.382812 659.980469 235.855469 660.132812 234.335938 C 660.289062 232.8125 660.5 231.300781 660.765625 229.796875 C 661.03125 228.289062 661.355469 226.796875 661.730469 225.3125 C 662.109375 223.832031 662.539062 222.363281 663.027344 220.914062 C 663.511719 219.464844 664.050781 218.035156 664.640625 216.625 L 572.757812 124.789062 L 330.261719 367.03125 C 329.054688 368.238281 327.90625 369.503906 326.824219 370.824219 C 325.738281 372.144531 324.71875 373.515625 323.769531 374.933594 C 322.820312 376.355469 321.941406 377.820312 321.136719 379.328125 C 320.328125 380.832031 319.597656 382.375 318.945312 383.957031 C 318.289062 385.535156 317.714844 387.140625 317.21875 388.777344 C 316.722656 390.410156 316.304688 392.066406 315.972656 393.742188 C 315.640625 395.421875 315.386719 397.109375 315.21875 398.808594 C 315.054688 400.511719 314.96875 402.214844 314.96875 403.925781 C 314.96875 405.632812 315.054688 407.339844 315.21875 409.039062 C 315.386719 410.738281 315.640625 412.429688 315.972656 414.105469 C 316.304688 415.78125 316.722656 417.4375 317.21875 419.070312 C 317.714844 420.707031 318.289062 422.3125 318.945312 423.894531 C 319.597656 425.472656 320.328125 427.015625 321.136719 428.523438 C 321.941406 430.027344 322.820312 431.492188 323.769531 432.914062 C 324.71875 434.332031 325.738281 435.703125 326.824219 437.023438 C 327.90625 438.34375 329.054688 439.609375 330.261719 440.816406 L 683.929688 794.433594 C 685.136719 795.640625 686.402344 796.785156 687.722656 797.871094 C 689.042969 798.957031 690.414062 799.972656 691.832031 800.921875 C 693.253906 801.871094 694.714844 802.746094 696.222656 803.554688 C 697.730469 804.359375 699.269531 805.089844 700.847656 805.742188 C 702.425781 806.398438 704.035156 806.972656 705.667969 807.46875 C 707.304688 807.964844 708.957031 808.378906 710.632812 808.710938 C 712.308594 809.046875 713.996094 809.296875 715.699219 809.464844 C 717.398438 809.628906 719.101562 809.714844 720.808594 809.714844 C 722.519531 809.714844 724.222656 809.628906 725.921875 809.464844 C 727.621094 809.296875 729.308594 809.046875 730.984375 808.710938 C 732.660156 808.378906 734.316406 807.964844 735.949219 807.46875 C 737.585938 806.972656 739.191406 806.398438 740.769531 805.742188 C 742.347656 805.089844 743.890625 804.359375 745.398438 803.554688 C 746.902344 802.746094 748.367188 801.871094 749.789062 800.921875 C 751.207031 799.972656 752.578125 798.957031 753.898438 797.871094 C 755.21875 796.785156 756.484375 795.640625 757.691406 794.433594 L 1109.710938 442.96875 C 1110.921875 441.761719 1112.066406 440.496094 1113.152344 439.175781 C 1114.238281 437.855469 1115.253906 436.484375 1116.203125 435.0625 C 1117.15625 433.644531 1118.03125 432.179688 1118.839844 430.671875 C 1119.644531 429.167969 1120.375 427.625 1121.03125 426.042969 C 1121.683594 424.464844 1122.261719 422.859375 1122.757812 421.222656 C 1123.253906 419.589844 1123.667969 417.933594 1124.003906 416.257812 C 1124.335938 414.578125 1124.585938 412.890625 1124.753906 411.191406 C 1124.921875 409.488281 1125.003906 407.785156 1125.003906 406.074219 C 1125.003906 404.367188 1124.921875 402.660156 1124.753906 400.960938 C 1124.585938 399.261719 1124.335938 397.570312 1124.003906 395.894531 C 1123.667969 394.21875 1123.253906 392.5625 1122.757812 390.929688 C 1122.261719 389.292969 1121.683594 387.6875 1121.03125 386.105469 C 1120.375 384.527344 1119.644531 382.984375 1118.839844 381.476562 C 1118.03125 379.972656 1117.15625 378.507812 1116.203125 377.085938 C 1115.253906 375.667969 1114.238281 374.296875 1113.152344 372.976562 C 1112.066406 371.65625 1110.921875 370.390625 1109.710938 369.183594 " fill-opacity="1" fill-rule="nonzero"/></g></svg>