<svg xmlns="http://www.w3.org/2000/svg" xmlns:xlink="http://www.w3.org/1999/xlink" width="1920" zoomAndPan="magnify" viewBox="0 0 1440 809.999993" height="1080" preserveAspectRatio="xMidYMid meet" version="1.0"><defs><g/></defs><rect x="-144" width="1728" fill="#ffffff" y="-80.999999" height="971.999992" fill-opacity="1"/><rect x="-144" width="1728" fill="#ffffff" y="-80.999999" height="971.999992" fill-opacity="1"/><path fill="#dfd112" d="M 1125 405 C 1125 411.628906 1124.835938 418.253906 1124.511719 424.871094 C 1124.1875 431.492188 1123.699219 438.101562 1123.050781 444.695312 C 1122.398438 451.292969 1121.589844 457.871094 1120.617188 464.425781 C 1119.644531 470.980469 1118.511719 477.511719 1117.21875 484.011719 C 1115.925781 490.511719 1114.472656 496.976562 1112.863281 503.40625 C 1111.25 509.835938 1109.484375 516.222656 1107.5625 522.566406 C 1105.636719 528.90625 1103.558594 535.199219 1101.324219 541.441406 C 1099.09375 547.679688 1096.707031 553.863281 1094.171875 559.988281 C 1091.632812 566.109375 1088.949219 572.167969 1086.117188 578.160156 C 1083.28125 584.152344 1080.300781 590.070312 1077.179688 595.914062 C 1074.054688 601.761719 1070.789062 607.527344 1067.378906 613.210938 C 1063.972656 618.898438 1060.425781 624.496094 1056.746094 630.003906 C 1053.0625 635.515625 1049.246094 640.933594 1045.296875 646.257812 C 1041.351562 651.582031 1037.273438 656.804688 1033.070312 661.929688 C 1028.863281 667.054688 1024.535156 672.070312 1020.085938 676.980469 C 1015.632812 681.890625 1011.066406 686.691406 1006.378906 691.378906 C 1001.691406 696.066406 996.890625 700.632812 991.980469 705.085938 C 987.070312 709.535156 982.054688 713.863281 976.929688 718.070312 C 971.804688 722.273438 966.582031 726.351562 961.257812 730.300781 C 955.933594 734.246094 950.515625 738.0625 945.003906 741.746094 C 939.496094 745.425781 933.898438 748.972656 928.210938 752.378906 C 922.527344 755.789062 916.761719 759.054688 910.914062 762.179688 C 905.070312 765.300781 899.152344 768.28125 893.160156 771.117188 C 887.167969 773.949219 881.109375 776.632812 874.988281 779.171875 C 868.863281 781.707031 862.679688 784.09375 856.441406 786.324219 C 850.199219 788.558594 843.90625 790.636719 837.566406 792.5625 C 831.222656 794.484375 824.835938 796.25 818.40625 797.863281 C 811.976562 799.472656 805.511719 800.925781 799.011719 802.21875 C 792.511719 803.511719 785.980469 804.644531 779.425781 805.617188 C 772.871094 806.589844 766.292969 807.398438 759.695312 808.050781 C 753.101562 808.699219 746.492188 809.1875 739.871094 809.511719 C 733.253906 809.835938 726.628906 810 720 810 C 713.371094 810 706.746094 809.835938 700.128906 809.511719 C 693.507812 809.1875 686.898438 808.699219 680.304688 808.050781 C 673.707031 807.398438 667.128906 806.589844 660.574219 805.617188 C 654.019531 804.644531 647.488281 803.511719 640.988281 802.21875 C 634.488281 800.925781 628.023438 799.472656 621.59375 797.863281 C 615.164062 796.25 608.777344 794.484375 602.433594 792.5625 C 596.09375 790.636719 589.800781 788.558594 583.558594 786.324219 C 577.320312 784.09375 571.136719 781.707031 565.011719 779.171875 C 558.890625 776.632812 552.832031 773.949219 546.839844 771.117188 C 540.847656 768.28125 534.929688 765.300781 529.085938 762.179688 C 523.238281 759.054688 517.472656 755.789062 511.789062 752.378906 C 506.101562 748.972656 500.503906 745.425781 494.992188 741.746094 C 489.484375 738.0625 484.066406 734.246094 478.742188 730.300781 C 473.417969 726.351562 468.195312 722.273438 463.070312 718.070312 C 457.945312 713.863281 452.929688 709.535156 448.019531 705.085938 C 443.105469 700.632812 438.308594 696.066406 433.621094 691.378906 C 428.933594 686.691406 424.367188 681.890625 419.914062 676.980469 C 415.464844 672.070312 411.136719 667.054688 406.929688 661.929688 C 402.726562 656.804688 398.648438 651.582031 394.699219 646.257812 C 390.753906 640.933594 386.9375 635.515625 383.253906 630.003906 C 379.574219 624.496094 376.027344 618.898438 372.621094 613.210938 C 369.210938 607.527344 365.945312 601.761719 362.820312 595.914062 C 359.699219 590.070312 356.71875 584.152344 353.882812 578.160156 C 351.050781 572.167969 348.363281 566.109375 345.828125 559.988281 C 343.292969 553.863281 340.90625 547.679688 338.675781 541.441406 C 336.441406 535.199219 334.363281 528.90625 332.4375 522.566406 C 330.515625 516.222656 328.746094 509.835938 327.136719 503.40625 C 325.527344 496.976562 324.074219 490.511719 322.78125 484.011719 C 321.488281 477.511719 320.355469 470.980469 319.382812 464.425781 C 318.410156 457.871094 317.601562 451.292969 316.949219 444.695312 C 316.300781 438.101562 315.8125 431.492188 315.488281 424.871094 C 315.164062 418.253906 315 411.628906 315 405 C 315 398.371094 315.164062 391.746094 315.488281 385.128906 C 315.8125 378.507812 316.300781 371.898438 316.949219 365.304688 C 317.601562 358.707031 318.410156 352.128906 319.382812 345.574219 C 320.355469 339.019531 321.488281 332.488281 322.78125 325.988281 C 324.074219 319.488281 325.527344 313.023438 327.136719 306.59375 C 328.746094 300.164062 330.515625 293.777344 332.4375 287.433594 C 334.363281 281.09375 336.441406 274.800781 338.675781 268.558594 C 340.90625 262.320312 343.292969 256.136719 345.828125 250.011719 C 348.363281 243.890625 351.050781 237.832031 353.882812 231.839844 C 356.71875 225.847656 359.699219 219.929688 362.820312 214.085938 C 365.945312 208.238281 369.210938 202.472656 372.621094 196.789062 C 376.027344 191.101562 379.574219 185.503906 383.253906 179.992188 C 386.9375 174.484375 390.753906 169.066406 394.699219 163.742188 C 398.648438 158.417969 402.726562 153.195312 406.929688 148.070312 C 411.136719 142.945312 415.464844 137.929688 419.914062 133.019531 C 424.367188 128.109375 428.933594 123.308594 433.621094 118.621094 C 438.308594 113.933594 443.105469 109.367188 448.019531 104.914062 C 452.929688 100.464844 457.945312 96.136719 463.070312 91.929688 C 468.195312 87.726562 473.417969 83.648438 478.742188 79.699219 C 484.066406 75.753906 489.484375 71.9375 494.992188 68.253906 C 500.503906 64.574219 506.101562 61.027344 511.789062 57.621094 C 517.472656 54.210938 523.238281 50.945312 529.085938 47.820312 C 534.929688 44.699219 540.847656 41.71875 546.839844 38.882812 C 552.832031 36.050781 558.890625 33.367188 565.011719 30.828125 C 571.136719 28.292969 577.320312 25.90625 583.558594 23.675781 C 589.800781 21.441406 596.09375 19.363281 602.433594 17.4375 C 608.777344 15.515625 615.164062 13.746094 621.59375 12.136719 C 628.023438 10.527344 634.488281 9.074219 640.988281 7.78125 C 647.488281 6.488281 654.019531 5.355469 660.574219 4.382812 C 667.128906 3.410156 673.707031 2.601562 680.304688 1.949219 C 686.898438 1.300781 693.507812 0.8125 700.128906 0.488281 C 706.746094 0.164062 713.371094 0 720 0 C 726.628906 0 733.253906 0.164062 739.871094 0.488281 C 746.492188 0.8125 753.101562 1.300781 759.695312 1.949219 C 766.292969 2.601562 772.871094 3.410156 779.425781 4.382812 C 785.980469 5.355469 792.511719 6.488281 799.011719 7.78125 C 805.511719 9.074219 811.976562 10.527344 818.40625 12.136719 C 824.835938 13.746094 831.222656 15.515625 837.566406 17.4375 C 843.90625 19.363281 850.199219 21.441406 856.441406 23.675781 C 862.679688 25.90625 868.863281 28.292969 874.988281 30.828125 C 881.109375 33.367188 887.167969 36.050781 893.160156 38.882812 C 899.152344 41.71875 905.070312 44.699219 910.914062 47.820312 C 916.761719 50.945312 922.527344 54.210938 928.210938 57.621094 C 933.898438 61.027344 939.496094 64.574219 945.003906 68.253906 C 950.515625 71.9375 955.933594 75.753906 961.257812 79.699219 C 966.582031 83.648438 971.804688 87.726562 976.929688 91.929688 C 982.054688 96.136719 987.070312 100.464844 991.980469 104.914062 C 996.890625 109.367188 1001.691406 113.933594 1006.378906 118.621094 C 1011.066406 123.308594 1015.632812 128.109375 1020.085938 133.019531 C 1024.535156 137.929688 1028.863281 142.945312 1033.070312 148.070312 C 1037.273438 153.195312 1041.351562 158.417969 1045.300781 163.742188 C 1049.246094 169.066406 1053.0625 174.484375 1056.746094 179.992188 C 1060.425781 185.503906 1063.972656 191.101562 1067.378906 196.789062 C 1070.789062 202.472656 1074.054688 208.238281 1077.179688 214.085938 C 1080.300781 219.929688 1083.28125 225.847656 1086.117188 231.839844 C 1088.949219 237.832031 1091.632812 243.890625 1094.171875 250.011719 C 1096.707031 256.136719 1099.09375 262.320312 1101.324219 268.558594 C 1103.558594 274.800781 1105.636719 281.09375 1107.5625 287.433594 C 1109.484375 293.777344 1111.253906 300.164062 1112.863281 306.59375 C 1114.472656 313.023438 1115.925781 319.488281 1117.21875 325.988281 C 1118.511719 332.488281 1119.644531 339.019531 1120.617188 345.574219 C 1121.589844 352.128906 1122.398438 358.707031 1123.050781 365.304688 C 1123.699219 371.898438 1124.1875 378.507812 1124.511719 385.128906 C 1124.835938 391.746094 1125 398.371094 1125 405 Z M 1125 405 " fill-opacity="1" fill-rule="nonzero"/><g fill="#ffffff" fill-opacity="1"><g transform="translate(518.277172, 484.332137)"><g><path d="M 64.8125 2.09375 C 54.675781 2.09375 45.65625 0.84375 37.75 -1.65625 C 29.851562 -4.15625 23.269531 -7.4375 18 -11.5 C 12.738281 -15.570312 8.707031 -20.039062 5.90625 -24.90625 L 21.8125 -44.3125 L 24.3125 -44.3125 C 28.707031 -37.78125 34.289062 -32.578125 41.0625 -28.703125 C 47.832031 -24.835938 55.75 -22.90625 64.8125 -22.90625 C 72.550781 -22.90625 78.382812 -24.535156 82.3125 -27.796875 C 86.25 -31.066406 88.21875 -35.570312 88.21875 -41.3125 C 88.21875 -44.78125 87.582031 -47.679688 86.3125 -50.015625 C 85.050781 -52.347656 82.953125 -54.347656 80.015625 -56.015625 C 77.085938 -57.679688 73.125 -59.113281 68.125 -60.3125 L 49.3125 -64.625 C 36.175781 -67.625 26.390625 -72.609375 19.953125 -79.578125 C 13.515625 -86.546875 10.296875 -95.597656 10.296875 -106.734375 C 10.296875 -115.003906 12.363281 -122.269531 16.5 -128.53125 C 20.632812 -134.800781 26.648438 -139.671875 34.546875 -143.140625 C 42.453125 -146.609375 51.910156 -148.34375 62.921875 -148.34375 C 74.191406 -148.34375 83.84375 -146.859375 91.875 -143.890625 C 99.914062 -140.921875 106.703125 -136.367188 112.234375 -130.234375 L 97.921875 -110.625 L 95.421875 -110.625 C 91.285156 -114.96875 86.550781 -118.222656 81.21875 -120.390625 C 75.882812 -122.554688 69.785156 -123.640625 62.921875 -123.640625 C 54.984375 -123.640625 48.945312 -122.238281 44.8125 -119.4375 C 40.675781 -116.632812 38.609375 -112.765625 38.609375 -107.828125 C 38.609375 -103.222656 40.054688 -99.554688 42.953125 -96.828125 C 45.859375 -94.097656 50.878906 -91.960938 58.015625 -90.421875 L 77.21875 -86.421875 C 91.425781 -83.421875 101.726562 -78.335938 108.125 -71.171875 C 114.53125 -64.003906 117.734375 -54.648438 117.734375 -43.109375 C 117.734375 -33.972656 115.765625 -26.019531 111.828125 -19.25 C 107.898438 -12.488281 101.96875 -7.238281 94.03125 -3.5 C 86.09375 0.226562 76.351562 2.09375 64.8125 2.09375 Z M 64.8125 2.09375 "/></g></g></g><g fill="#ffffff" fill-opacity="1"><g transform="translate(643.910502, 484.332137)"><g><path d="M 116.234375 36.40625 C 103.359375 36.40625 92.671875 33.304688 84.171875 27.109375 C 75.671875 20.910156 69.953125 12.273438 67.015625 1.203125 C 55.878906 -0.398438 46.160156 -4.1875 37.859375 -10.15625 C 29.554688 -16.125 23.085938 -24.375 18.453125 -34.90625 C 13.816406 -45.445312 11.5 -58.1875 11.5 -73.125 C 11.5 -89.863281 14.398438 -103.847656 20.203125 -115.078125 C 26.003906 -126.316406 34.023438 -134.671875 44.265625 -140.140625 C 54.503906 -145.609375 66.320312 -148.34375 79.71875 -148.34375 C 93.125 -148.34375 104.925781 -145.625 115.125 -140.1875 C 125.332031 -134.75 133.320312 -126.394531 139.09375 -115.125 C 144.863281 -103.863281 147.75 -89.863281 147.75 -73.125 C 147.75 -51.25 143.0625 -34.457031 133.6875 -22.75 C 124.320312 -11.050781 111.171875 -3.769531 94.234375 -0.90625 L 93.734375 1.09375 C 95.796875 4.632812 98.875 7.351562 102.96875 9.25 C 107.070312 11.15625 111.859375 12.109375 117.328125 12.109375 C 121.734375 12.109375 125.703125 11.539062 129.234375 10.40625 L 131.234375 10.796875 L 135.34375 33.40625 C 133.207031 34.207031 130.335938 34.90625 126.734375 35.5 C 123.128906 36.101562 119.628906 36.40625 116.234375 36.40625 Z M 79.71875 -23 C 92.125 -23 101.59375 -26.984375 108.125 -34.953125 C 114.664062 -42.921875 117.9375 -55.644531 117.9375 -73.125 C 117.9375 -90.59375 114.664062 -103.328125 108.125 -111.328125 C 101.59375 -119.328125 92.125 -123.328125 79.71875 -123.328125 C 67.25 -123.328125 57.726562 -119.328125 51.15625 -111.328125 C 44.59375 -103.328125 41.3125 -90.59375 41.3125 -73.125 C 41.3125 -55.644531 44.59375 -42.921875 51.15625 -34.953125 C 57.726562 -26.984375 67.25 -23 79.71875 -23 Z M 79.71875 -23 "/></g></g></g><g fill="#ffffff" fill-opacity="1"><g transform="translate(803.252776, 484.332137)"><g><path d="M 47.90625 -146.25 L 47.90625 -24.203125 L 113.640625 -24.203125 L 113.640625 0 L 19 0 L 19 -146.25 Z M 47.90625 -146.25 "/></g></g></g></svg>