<svg xmlns="http://www.w3.org/2000/svg" xmlns:xlink="http://www.w3.org/1999/xlink" width="1920" zoomAndPan="magnify" viewBox="0 0 1440 809.999993" height="1080" preserveAspectRatio="xMidYMid meet" version="1.0"><path fill="#ffd600" d="M 315 0 L 1125 0 L 1125 810 L 315 810 Z M 315 0 " fill-opacity="1" fill-rule="nonzero"/><path fill="#000001" d="M 844.605469 606.308594 C 860.175781 631.597656 877.09375 655.828125 912.9375 655.828125 C 943.042969 655.828125 958.835938 640.867188 958.835938 620.167969 C 958.835938 595.394531 942.503906 586.597656 909.382812 572.175781 L 891.226562 564.433594 C 838.824219 542.203125 803.96875 514.351562 803.96875 455.511719 C 803.96875 401.289062 845.484375 360.023438 910.351562 360.023438 C 956.542969 360.023438 989.730469 376.019531 1013.667969 417.914062 L 957.105469 454.074219 C 944.664062 431.84375 931.207031 423.089844 910.351562 423.089844 C 889.066406 423.089844 875.585938 436.523438 875.585938 454.074219 C 875.585938 475.761719 889.085938 484.539062 920.25 497.96875 L 938.40625 505.710938 C 1000.171875 532.011719 1035 558.878906 1035 619.265625 C 1035 684.335938 983.609375 720 914.625 720 C 847.148438 720 808.828125 686.136719 787.5 644.21875 Z M 583.921875 608.152344 C 595.304688 628.539062 612.609375 644.21875 637.492188 644.21875 C 661.296875 644.21875 675 634.816406 675 598.253906 L 675 360 L 749.992188 360 L 749.992188 609.773438 C 749.992188 685.53125 706.050781 720 641.878906 720 C 583.898438 720 542.046875 680.714844 524.992188 644.21875 Z M 583.921875 608.152344 " fill-opacity="1" fill-rule="nonzero"/></svg>