<svg xmlns="http://www.w3.org/2000/svg" xmlns:xlink="http://www.w3.org/1999/xlink" width="1920" zoomAndPan="magnify" viewBox="0 0 1440 809.999993" height="1080" preserveAspectRatio="xMidYMid meet" version="1.0"><defs><clipPath id="4463b7b25d"><path d="M 285.101562 18 L 1155 18 L 1155 792 L 285.101562 792 Z M 285.101562 18 " clip-rule="nonzero"/></clipPath></defs><g clip-path="url(#4463b7b25d)"><path fill="#00d8ff" d="M 1000.105469 268.953125 C 990.847656 265.777344 981.515625 262.835938 972.113281 260.132812 C 973.691406 253.679688 975.144531 247.304688 976.4375 241.042969 C 997.628906 138.203125 983.773438 55.355469 936.457031 28.078125 C 891.089844 1.925781 816.898438 29.195312 741.96875 94.390625 C 734.582031 100.828125 727.363281 107.449219 720.3125 114.25 C 715.59375 109.726562 710.789062 105.292969 705.90625 100.949219 C 627.375 31.238281 548.660156 1.859375 501.394531 29.214844 C 456.070312 55.445312 442.648438 133.332031 461.726562 230.792969 C 463.625 240.445312 465.765625 250.046875 468.152344 259.59375 C 457.011719 262.757812 446.257812 266.125 435.96875 269.710938 C 343.898438 301.804688 285.101562 352.101562 285.101562 404.269531 C 285.101562 458.148438 348.222656 512.191406 444.117188 544.960938 C 451.894531 547.605469 459.734375 550.058594 467.628906 552.3125 C 465.066406 562.589844 462.789062 572.941406 460.800781 583.347656 C 442.613281 679.117188 456.816406 755.160156 502.019531 781.226562 C 548.707031 808.144531 627.070312 780.480469 703.367188 713.796875 C 709.554688 708.375 715.605469 702.800781 721.515625 697.078125 C 729.148438 704.441406 736.988281 711.589844 745.023438 718.519531 C 818.933594 782.101562 891.925781 807.777344 937.085938 781.640625 C 983.730469 754.644531 998.890625 672.953125 979.207031 573.566406 C 977.660156 565.777344 975.917969 558.03125 973.996094 550.328125 C 979.496094 548.699219 984.898438 547.019531 990.164062 545.277344 C 1089.859375 512.253906 1154.722656 458.867188 1154.722656 404.269531 C 1154.722656 351.910156 1094.027344 301.277344 1000.105469 268.953125 Z M 978.480469 510.023438 C 973.726562 511.597656 968.847656 513.113281 963.875 514.589844 C 952.867188 479.757812 938.015625 442.71875 919.839844 404.449219 C 937.183594 367.089844 951.464844 330.523438 962.164062 295.917969 C 971.058594 298.492188 979.691406 301.207031 988.011719 304.066406 C 1068.488281 331.765625 1117.574219 372.714844 1117.574219 404.269531 C 1117.574219 437.875 1064.5625 481.507812 978.480469 510.023438 Z M 942.765625 580.777344 C 951.46875 624.726562 952.707031 664.460938 946.945312 695.523438 C 941.765625 723.4375 931.351562 742.042969 918.472656 749.5 C 891.066406 765.359375 832.460938 744.746094 769.253906 690.367188 C 761.78125 683.921875 754.488281 677.277344 747.386719 670.429688 C 771.890625 643.636719 796.382812 612.492188 820.28125 577.898438 C 862.324219 574.167969 902.039062 568.070312 938.058594 559.746094 C 939.792969 566.71875 941.363281 573.730469 942.765625 580.777344 Z M 581.574219 746.757812 C 554.800781 756.210938 533.472656 756.480469 520.582031 749.050781 C 493.152344 733.234375 481.746094 672.175781 497.300781 590.273438 C 499.152344 580.597656 501.269531 570.972656 503.652344 561.410156 C 539.269531 569.289062 578.699219 574.953125 620.839844 578.371094 C 644.902344 612.21875 670.097656 643.332031 695.492188 670.574219 C 690.09375 675.796875 684.570312 680.882812 678.925781 685.832031 C 645.183594 715.316406 611.371094 736.238281 581.574219 746.757812 Z M 456.136719 509.816406 C 413.734375 495.324219 378.714844 476.492188 354.710938 455.945312 C 333.140625 437.480469 322.253906 419.144531 322.253906 404.269531 C 322.253906 372.609375 369.460938 332.230469 448.199219 304.785156 C 457.753906 301.457031 467.753906 298.316406 478.132812 295.367188 C 489.015625 330.753906 503.289062 367.753906 520.515625 405.171875 C 503.066406 443.140625 488.589844 480.730469 477.597656 516.539062 C 470.390625 514.472656 463.234375 512.234375 456.136719 509.816406 Z M 498.183594 223.65625 C 481.84375 140.15625 492.695312 77.167969 520.011719 61.359375 C 549.101562 44.523438 613.433594 68.527344 681.242188 128.722656 C 685.664062 132.65625 690.011719 136.671875 694.289062 140.761719 C 669.023438 167.886719 644.058594 198.765625 620.207031 232.417969 C 579.308594 236.207031 540.160156 242.292969 504.164062 250.445312 C 501.945312 241.570312 499.953125 232.636719 498.183594 223.660156 Z M 873.300781 316.261719 C 864.800781 301.582031 855.984375 287.085938 846.855469 272.78125 C 874.601562 276.289062 901.1875 280.949219 926.152344 286.640625 C 918.65625 310.65625 909.316406 335.765625 898.320312 361.507812 C 890.28125 346.261719 881.941406 331.175781 873.300781 316.261719 Z M 720.328125 167.304688 C 737.464844 185.867188 754.625 206.585938 771.503906 229.066406 C 737.261719 227.453125 702.964844 227.445312 668.722656 229.046875 C 685.621094 206.773438 702.925781 186.078125 720.328125 167.304688 Z M 566.375 316.519531 C 557.84375 331.3125 549.65625 346.300781 541.828125 361.476562 C 531.007812 335.824219 521.753906 310.601562 514.195312 286.246094 C 539.007812 280.695312 565.464844 276.160156 593.035156 272.714844 C 583.808594 287.105469 574.917969 301.707031 566.375 316.515625 Z M 593.828125 538.460938 C 565.34375 535.285156 538.488281 530.980469 513.683594 525.582031 C 521.359375 500.789062 530.820312 475.03125 541.871094 448.828125 C 549.734375 464.015625 557.953125 479.015625 566.523438 493.8125 C 575.332031 509.027344 584.457031 523.929688 593.828125 538.460938 Z M 721.355469 643.84375 C 703.746094 624.855469 686.183594 603.84375 669.03125 581.242188 C 685.683594 581.894531 702.660156 582.230469 719.910156 582.230469 C 737.636719 582.230469 755.160156 581.832031 772.40625 581.0625 C 755.472656 604.070312 738.375 625.113281 721.355469 643.84375 Z M 898.667969 447.492188 C 910.292969 473.980469 920.089844 499.605469 927.871094 523.972656 C 902.65625 529.722656 875.433594 534.355469 846.75 537.796875 C 855.941406 523.230469 864.84375 508.480469 873.449219 493.558594 C 882.195312 478.390625 890.605469 463.03125 898.667969 447.492188 Z M 841.269531 475.003906 C 828.097656 497.878906 814.183594 520.324219 799.550781 542.296875 C 773.046875 544.175781 746.484375 545.105469 719.910156 545.09375 C 692.847656 545.09375 666.523438 544.25 641.175781 542.605469 C 626.164062 520.683594 611.984375 498.199219 598.671875 475.207031 L 598.675781 475.207031 C 585.421875 452.332031 573.046875 428.964844 561.570312 405.152344 C 573.015625 381.335938 585.355469 357.957031 598.5625 335.066406 L 598.558594 335.070312 C 611.757812 312.175781 625.824219 289.789062 640.726562 267.960938 C 666.585938 266.003906 693.105469 264.984375 719.90625 264.984375 L 719.910156 264.984375 C 746.835938 264.984375 773.390625 266.015625 799.246094 267.984375 C 813.996094 289.78125 827.96875 312.089844 841.144531 334.871094 C 854.394531 357.710938 866.898438 380.976562 878.636719 404.628906 C 867.019531 428.523438 854.554688 451.996094 841.269531 475.003906 Z M 917.902344 60.253906 C 947.023438 77.042969 958.347656 144.75 940.050781 233.542969 C 938.882812 239.207031 937.570312 244.980469 936.144531 250.828125 C 900.0625 242.503906 860.886719 236.3125 819.867188 232.464844 C 795.972656 198.445312 771.214844 167.515625 746.355469 140.742188 C 752.871094 134.464844 759.539062 128.347656 766.359375 122.402344 C 830.5625 66.546875 890.566406 44.492188 917.902344 60.253906 Z M 719.910156 326.632812 C 762.796875 326.632812 797.566406 361.390625 797.566406 404.269531 C 797.566406 447.144531 762.796875 481.902344 719.910156 481.902344 C 677.023438 481.902344 642.257812 447.144531 642.257812 404.269531 C 642.257812 361.390625 677.023438 326.632812 719.910156 326.632812 Z M 719.910156 326.632812 " fill-opacity="1" fill-rule="nonzero"/></g></svg>