<svg xmlns="http://www.w3.org/2000/svg" xmlns:xlink="http://www.w3.org/1999/xlink" width="1920" zoomAndPan="magnify" viewBox="0 0 1440 809.999993" height="1080" preserveAspectRatio="xMidYMid meet" version="1.0"><path fill="#007acc" d="M 315 810 L 1125 810 L 1125 0 L 315 0 Z M 315 810 " fill-opacity="1" fill-rule="nonzero"/><path fill="#ffffff" d="M 494.085938 407.65625 L 493.832031 440.847656 L 599.257812 440.847656 L 599.257812 740.421875 L 673.832031 740.421875 L 673.832031 440.847656 L 779.261719 440.847656 L 779.261719 408.320312 C 779.261719 390.320312 778.875 375.257812 778.363281 374.878906 C 777.976562 374.371094 713.820312 374.117188 636.027344 374.246094 L 494.464844 374.625 Z M 494.085938 407.65625 " fill-opacity="1" fill-rule="nonzero"/><path fill="#ffffff" d="M 968.601562 373.707031 C 989.167969 378.832031 1004.859375 387.976562 1019.257812 402.878906 C 1026.691406 410.855469 1037.765625 425.375 1038.652344 428.855469 C 1038.90625 429.902344 1003.691406 453.535156 982.332031 466.792969 C 981.574219 467.300781 978.503906 463.945312 975.023438 458.820312 C 964.613281 443.632812 953.664062 437.082031 936.960938 435.945312 C 912.40625 434.269531 896.585938 447.113281 896.710938 468.597656 C 896.710938 474.894531 897.628906 478.628906 900.191406 483.753906 C 905.605469 494.953125 915.632812 501.628906 947.117188 515.269531 C 1005.113281 540.199219 1029.917969 556.652344 1045.359375 580.066406 C 1062.574219 606.171875 1066.433594 647.808594 1054.726562 678.785156 C 1041.878906 712.484375 1009.988281 735.359375 965.121094 742.953125 C 951.230469 745.390625 918.324219 745.011719 903.390625 742.320312 C 870.863281 736.53125 840.011719 720.457031 820.996094 699.382812 C 813.53125 691.15625 799.007812 669.675781 799.894531 668.125 C 800.304688 667.617188 803.625 665.558594 807.359375 663.378906 C 810.96875 661.320312 824.605469 653.472656 837.449219 646.007812 L 860.707031 632.527344 L 865.609375 639.710938 C 872.414062 650.121094 887.347656 664.390625 896.332031 669.167969 C 922.183594 682.773438 957.652344 680.84375 975.148438 665.179688 C 982.617188 658.347656 985.6875 651.289062 985.6875 640.882812 C 985.6875 631.484375 984.546875 627.371094 979.644531 620.316406 C 973.347656 611.296875 960.5 603.703125 923.988281 587.914062 C 882.191406 569.910156 864.1875 558.710938 847.734375 540.960938 C 838.210938 530.675781 829.222656 514.222656 825.488281 500.460938 C 822.390625 489.039062 821.628906 460.371094 824.066406 448.789062 C 832.703125 408.417969 863.175781 380.257812 907.121094 371.902344 C 921.394531 369.214844 954.582031 370.226562 968.601562 373.707031 Z M 968.601562 373.707031 " fill-opacity="1" fill-rule="nonzero"/></svg>