<svg xmlns="http://www.w3.org/2000/svg" xmlns:xlink="http://www.w3.org/1999/xlink" width="1920" zoomAndPan="magnify" viewBox="0 0 1440 809.999993" height="1080" preserveAspectRatio="xMidYMid meet" version="1.0"><defs><clipPath id="2d2070acbc"><path d="M 749 120.601562 L 1078 120.601562 L 1078 687 L 749 687 Z M 749 120.601562 " clip-rule="nonzero"/></clipPath></defs><path fill="#388e3c" d="M 517.617188 332.582031 L 371.488281 413.390625 C 366.007812 416.398438 362.644531 421.996094 362.644531 428.035156 L 362.644531 589.746094 C 362.644531 595.789062 366.007812 601.355469 371.488281 604.390625 L 517.648438 685.261719 C 523.097656 688.265625 529.855469 688.265625 535.304688 685.261719 L 681.433594 604.390625 C 686.855469 601.355469 690.21875 595.789062 690.21875 589.746094 L 690.21875 428.035156 C 690.21875 421.996094 686.855469 416.429688 681.375 413.390625 L 535.277344 332.582031 C 532.535156 331.0625 529.46875 330.320312 526.429688 330.320312 C 523.363281 330.320312 520.328125 331.0625 517.585938 332.582031 M 1269.464844 478.160156 L 1245.105469 491.613281 C 1244.183594 492.121094 1243.648438 493.042969 1243.648438 494.054688 L 1243.648438 521.019531 C 1243.648438 522.03125 1244.210938 522.957031 1245.105469 523.460938 L 1269.464844 536.945312 C 1270.390625 537.449219 1271.492188 537.449219 1272.414062 536.945312 L 1296.773438 523.460938 C 1297.667969 522.957031 1298.234375 522.03125 1298.234375 521.019531 L 1298.234375 494.054688 C 1298.234375 493.042969 1297.667969 492.121094 1296.742188 491.613281 L 1272.382812 478.160156 C 1271.9375 477.890625 1271.429688 477.773438 1270.925781 477.773438 C 1270.417969 477.773438 1269.914062 477.890625 1269.464844 478.160156 " fill-opacity="1" fill-rule="nonzero"/><g clip-path="url(#2d2070acbc)"><path fill="#37474f" d="M 1069.941406 161.199219 L 998.796875 121.523438 C 996.5625 120.273438 993.824219 120.300781 991.621094 121.613281 C 989.417969 122.921875 988.046875 125.273438 988.046875 127.832031 L 988.015625 367.496094 L 922.414062 331.210938 C 919.671875 329.695312 916.605469 328.949219 913.566406 328.949219 C 910.53125 328.949219 907.464844 329.695312 904.722656 331.210938 L 904.753906 331.210938 L 758.625 412.023438 C 753.144531 415.03125 749.78125 420.625 749.78125 426.636719 L 749.78125 588.347656 C 749.78125 594.390625 753.144531 599.957031 758.625 602.992188 L 904.785156 683.863281 C 910.234375 686.867188 916.992188 686.867188 922.441406 683.863281 L 1068.570312 602.992188 C 1073.992188 599.984375 1077.355469 594.390625 1077.355469 588.347656 L 1077.355469 173.820312 C 1077.355469 168.582031 1074.496094 163.757812 1069.941406 161.199219 Z M 984.027344 550.933594 L 917.617188 587.691406 C 915.148438 589.0625 912.078125 589.0625 909.609375 587.691406 L 843.167969 550.933594 C 840.636719 549.566406 839.117188 547.003906 839.117188 544.265625 L 839.117188 470.75 C 839.117188 468.011719 840.636719 465.480469 843.140625 464.082031 L 909.578125 427.351562 L 909.546875 427.351562 C 910.796875 426.667969 912.167969 426.339844 913.566406 426.339844 C 914.96875 426.339844 916.335938 426.695312 917.589844 427.351562 L 983.996094 464.082031 C 986.5 465.480469 988.015625 468.039062 988.015625 470.777344 L 988.015625 544.296875 C 988.015625 547.003906 986.5 549.566406 984.027344 550.933594 Z M 984.027344 550.933594 " fill-opacity="1" fill-rule="nonzero"/></g><path fill="#2e7d32" d="M 517.617188 332.582031 L 362.644531 589.746094 C 362.644531 595.789062 366.007812 601.355469 371.488281 604.390625 L 517.648438 685.261719 C 523.097656 688.265625 529.855469 688.265625 535.304688 685.261719 L 690.21875 428.035156 C 690.21875 421.996094 686.855469 416.429688 681.375 413.390625 L 535.277344 332.582031 C 532.535156 331.0625 529.46875 330.320312 526.429688 330.320312 C 523.363281 330.320312 520.328125 331.0625 517.585938 332.582031 " fill-opacity="1" fill-rule="nonzero"/><path fill="#4caf50" d="M 517.617188 332.582031 L 371.488281 413.390625 C 366.007812 416.398438 362.644531 421.996094 362.644531 428.035156 L 517.617188 685.261719 C 523.066406 688.265625 529.828125 688.265625 535.277344 685.261719 L 681.40625 604.390625 C 686.855469 601.355469 690.21875 595.789062 690.21875 589.746094 L 535.277344 332.582031 C 532.535156 331.0625 529.46875 330.320312 526.433594 330.320312 C 523.363281 330.320312 520.328125 331.0625 517.585938 332.582031 " fill-opacity="1" fill-rule="nonzero"/><path fill="#37474f" d="M 1425.867188 412.023438 L 1279.769531 331.210938 C 1277.03125 329.695312 1273.960938 328.949219 1270.925781 328.949219 C 1267.886719 328.949219 1264.820312 329.695312 1262.082031 331.210938 L 1262.109375 331.210938 L 1115.980469 412.023438 C 1110.53125 415.03125 1107.136719 420.746094 1107.136719 426.996094 L 1107.136719 588.050781 C 1107.136719 594.269531 1110.53125 600.015625 1115.980469 603.019531 L 1262.140625 683.890625 C 1267.621094 686.925781 1274.320312 686.925781 1279.800781 683.890625 L 1347.191406 646.597656 C 1353.355469 643.171875 1353.324219 634.332031 1347.132812 630.941406 L 1200.496094 550.964844 C 1198.023438 549.566406 1196.476562 546.976562 1196.476562 544.175781 L 1196.476562 470.777344 C 1196.476562 468.039062 1197.964844 465.511719 1200.347656 464.199219 L 1266.90625 427.410156 L 1266.875 427.410156 C 1268.125 426.726562 1269.496094 426.398438 1270.894531 426.398438 C 1272.296875 426.398438 1273.664062 426.757812 1274.914062 427.410156 L 1341.472656 464.230469 C 1343.855469 465.539062 1345.34375 468.070312 1345.34375 470.808594 L 1345.34375 530.695312 C 1345.34375 533.253906 1346.714844 535.632812 1348.949219 536.914062 C 1351.179688 538.164062 1353.921875 538.164062 1356.15625 536.886719 L 1427.566406 495.421875 C 1431.972656 492.863281 1434.714844 488.128906 1434.714844 483.011719 L 1434.714844 427.054688 C 1434.714844 420.773438 1431.320312 415.03125 1425.867188 412.023438 Z M 324.019531 412.023438 L 177.917969 331.210938 C 175.179688 329.695312 172.113281 328.949219 169.074219 328.949219 C 166.039062 328.949219 162.96875 329.695312 160.230469 331.210938 L 160.261719 331.210938 L 14.132812 412.023438 C 8.679688 415.03125 5.285156 420.746094 5.285156 426.996094 L 5.285156 649.1875 C 5.285156 651.746094 6.65625 654.125 8.890625 655.40625 C 11.125 656.65625 13.863281 656.65625 16.097656 655.375 L 87.507812 613.914062 C 91.914062 611.355469 94.625 606.621094 94.625 601.503906 L 94.625 470.75 C 94.625 468.011719 96.113281 465.480469 98.496094 464.171875 L 165.054688 427.382812 C 166.304688 426.695312 167.675781 426.371094 169.074219 426.371094 C 170.472656 426.371094 171.84375 426.726562 173.09375 427.382812 L 239.652344 464.199219 C 242.035156 465.511719 243.523438 468.039062 243.523438 470.777344 L 243.523438 601.53125 C 243.523438 606.652344 246.234375 611.386719 250.671875 613.945312 L 322.082031 655.40625 C 324.316406 656.6875 327.054688 656.6875 329.289062 655.4375 C 331.492188 654.125 332.863281 651.746094 332.863281 649.1875 L 332.863281 427.023438 C 332.863281 420.773438 329.46875 415.03125 324.019531 412.023438 Z M 324.019531 412.023438 " fill-opacity="1" fill-rule="nonzero"/></svg>