<svg xmlns="http://www.w3.org/2000/svg" xmlns:xlink="http://www.w3.org/1999/xlink" width="1920" zoomAndPan="magnify" viewBox="0 0 1440 809.999993" height="1080" preserveAspectRatio="xMidYMid meet" version="1.0"><path fill="#4e7d9d" d="M 468.640625 747.207031 C 785.714844 799.1875 1046.582031 723.777344 964.335938 686.289062 C 964.335938 686.289062 986.796875 705 939.632812 719.460938 C 849.886719 746.972656 566.054688 755.242188 487.253906 720.566406 C 458.933594 708.082031 512.09375 690.777344 528.761719 687.160156 C 546.203125 683.34375 556.179688 684.046875 556.179688 684.046875 C 524.578125 661.589844 352.351562 728.128906 468.640625 747.207031 Z M 468.640625 747.207031 " fill-opacity="1" fill-rule="nonzero"/><path fill="#4e7d9d" d="M 1014.617188 727.191406 C 1014.617188 727.191406 1004.605469 753.132812 896.382812 773.75 C 774.332031 796.980469 623.695312 794.269531 534.421875 779.375 C 534.421875 779.339844 552.730469 794.671875 646.726562 800.761719 C 789.765625 810.035156 1009.425781 795.640625 1014.617188 727.191406 Z M 1014.617188 727.191406 " fill-opacity="1" fill-rule="nonzero"/><path fill="#4e7d9d" d="M 828.664062 553.914062 C 736.742188 571.820312 683.652344 571.21875 616.398438 564.222656 C 564.445312 558.765625 598.457031 533.292969 598.457031 533.292969 C 463.921875 578.414062 673.339844 629.65625 861.300781 574.0625 C 841.351562 566.933594 828.664062 553.914062 828.664062 553.914062 Z M 828.664062 553.914062 " fill-opacity="1" fill-rule="nonzero"/><path fill="#4e7d9d" d="M 891.027344 588.554688 C 890.355469 590.429688 888.046875 592.472656 888.046875 592.503906 C 1087.089844 539.585938 1013.914062 405.96875 918.742188 439.808594 C 910.375 442.820312 905.988281 449.75 905.988281 449.75 C 905.988281 449.75 911.277344 447.609375 923.027344 445.132812 C 971.164062 434.957031 1040.054688 510.234375 891.027344 588.554688 Z M 891.027344 588.554688 " fill-opacity="1" fill-rule="nonzero"/><path fill="#f2941b" d="M 629.421875 255.285156 C 592.398438 311.546875 647.632812 371.964844 722.882812 440.679688 C 693.527344 373.605469 593.972656 314.863281 722.917969 211.871094 C 883.730469 83.476562 801.179688 0 801.179688 0 C 834.519531 132.613281 683.816406 172.644531 629.421875 255.285156 Z M 629.421875 255.285156 " fill-opacity="1" fill-rule="nonzero"/><path fill="#f2941b" d="M 900.699219 164.074219 C 900.699219 164.042969 628.785156 232.722656 758.667969 384.082031 C 796.996094 428.699219 748.589844 468.863281 748.589844 468.863281 C 748.589844 468.863281 845.867188 418.054688 801.179688 354.457031 C 759.4375 295.148438 727.433594 265.695312 900.699219 164.074219 Z M 900.699219 164.074219 " fill-opacity="1" fill-rule="nonzero"/><path fill="#4e7d9d" d="M 617.503906 621.222656 C 495.386719 655.730469 691.785156 727.058594 847.308594 659.679688 C 821.867188 649.640625 803.589844 638.058594 803.589844 638.058594 C 734.265625 651.378906 702.09375 652.417969 639.128906 645.121094 C 587.144531 639.097656 617.503906 621.222656 617.503906 621.222656 Z M 617.503906 621.222656 " fill-opacity="1" fill-rule="nonzero"/><path fill="#4e7d9d" d="M 855.34375 491.019531 C 870.605469 480.476562 891.695312 471.375 891.695312 471.375 C 891.695312 471.375 831.710938 482.25 771.957031 487.339844 C 698.847656 493.53125 620.351562 494.734375 580.984375 489.414062 C 487.722656 476.828125 632.097656 442.152344 632.097656 442.152344 C 632.097656 442.152344 576.027344 438.335938 507.136719 472.007812 C 425.558594 511.875 708.789062 530.015625 855.34375 491.019531 Z M 855.34375 491.019531 " fill-opacity="1" fill-rule="nonzero"/></svg>